<?xml version="1.0" encoding="UTF-8" standalone="no"?>
<!-- Created with Inkscape (http://www.inkscape.org/) -->

<svg
   xmlns:dc="http://purl.org/dc/elements/1.1/"
   xmlns:cc="http://creativecommons.org/ns#"
   xmlns:rdf="http://www.w3.org/1999/02/22-rdf-syntax-ns#"
   xmlns:svg="http://www.w3.org/2000/svg"
   xmlns="http://www.w3.org/2000/svg"
   xmlns:sodipodi="http://sodipodi.sourceforge.net/DTD/sodipodi-0.dtd"
   xmlns:inkscape="http://www.inkscape.org/namespaces/inkscape"
   width="165.2921"
   height="165.1967"
   viewBox="0 0 43.733533 43.708294"
   version="1.1"
   id="svg8"
   sodipodi:docname="pairist.svg"
   inkscape:version="0.92.2 5c3e80d, 2017-08-06"
   inkscape:export-filename="/home/luan/workspace/src/github.com/luan/pairist/static/logo-92x92.png"
   inkscape:export-xdpi="53.43"
   inkscape:export-ydpi="53.43">
  <defs
     id="defs2" />
  <sodipodi:namedview
     id="base"
     pagecolor="#ffffff"
     bordercolor="#666666"
     borderopacity="1.0"
     inkscape:pageopacity="0.0"
     inkscape:pageshadow="2"
     inkscape:zoom="7.2407736"
     inkscape:cx="51.884986"
     inkscape:cy="88.484899"
     inkscape:document-units="mm"
     inkscape:current-layer="g5672"
     showgrid="false"
     inkscape:window-width="3840"
     inkscape:window-height="2092"
     inkscape:window-x="0"
     inkscape:window-y="68"
     inkscape:window-maximized="0"
     showborder="true"
     units="px"
     fit-margin-top="0"
     fit-margin-left="0"
     fit-margin-right="0"
     fit-margin-bottom="0" />
  <metadata
     id="metadata5">
    <rdf:RDF>
      <cc:Work
         rdf:about="">
        <dc:format>image/svg+xml</dc:format>
        <dc:type
           rdf:resource="http://purl.org/dc/dcmitype/StillImage" />
        <dc:title></dc:title>
      </cc:Work>
    </rdf:RDF>
  </metadata>
  <g
     inkscape:label="Layer 1"
     inkscape:groupmode="layer"
     id="layer1"
     transform="translate(-38.206498,-78.413333)">
    <g
       id="g5672">
      <path
         inkscape:connector-curvature="0"
         id="path5605"
         d="m 61.268612,82.709196 c -1.041797,0 -2.604492,0.123781 -4.688086,0.371342 -1.041797,0.132032 -2.075325,0.280569 -3.100586,0.44561 -1.008724,0.148536 -2.017448,0.330081 -3.026172,0.544634 -2.017448,0.429106 -3.505729,0.84996 -4.464843,1.262562 -0.892969,0.379593 -1.579232,0.816951 -2.058789,1.312073 -0.463021,0.495123 -0.694532,1.147033 -0.694532,1.955733 0,0.36309 0.115755,0.660163 0.347266,0.89122 0.248047,0.214553 0.553971,0.321829 0.917773,0.321829 0.198438,0 0.487826,-0.07427 0.868164,-0.222805 3.241146,-1.105772 5.74642,-1.848456 7.515821,-2.228049 3.654557,-0.709676 7.110677,-1.064513 10.368359,-1.064513 0.545703,0 1.132747,0.0082 1.761133,0.02474 0.644922,0.0165 1.30638,0.05776 1.984375,0.12378 0.677994,0.04951 1.364257,0.132033 2.058789,0.247561 0.694531,0.09902 1.380794,0.23931 2.058789,0.420854 1.355989,0.36309 2.033984,0.89122 2.033984,1.584391 0,1.501871 -0.859896,3.127522 -2.579687,4.876954 -0.859896,0.858211 -1.744597,1.650407 -2.654102,2.376586 -0.892969,0.726179 -1.81901,1.37809 -2.778125,1.955733 -1.455208,0.874716 -5.02295,2.508619 -6.560841,3.234799 -0.887328,0.42354 0.46414,-2.09187 -0.638204,-2.561742 -0.641281,-0.273344 -1.633318,0.436935 -2.284098,0.70916 -0.14855,0.06214 -0.06436,3.258812 -0.21549,3.321442 -0.992187,0.41261 -1.868619,0.7757 -2.629296,1.08927 v 5.3e-4 c 2.64e-4,0.0133 5e-5,0.0263 0,0.0397 -6e-6,0.004 -0.162177,0.5096 -0.197512,1.09952 -0.03249,0.54233 0.02686,1.34135 0.04969,1.80996 0.02754,0.56517 -0.09466,1.14057 -0.09525,1.15201 -7.94e-4,0.0281 -7.94e-4,-0.0192 0,0.0222 3.7e-5,0.0183 -3.4e-5,0.0363 0,0.0547 3.5e-5,0.016 8e-6,0.0325 0,0.0485 1.13678,-0.39572 2.267249,-0.81967 3.389974,-1.27855 0.165473,-0.0686 -0.497827,6.71094 1.512051,8.99575 1.187122,1.3495 2.660465,1.97703 5.163511,1.5715 1.176729,-0.19065 5.675013,-2.99275 5.681824,-3.78408 0.0068,-0.79132 -0.330047,-0.91168 -0.757061,-1.31723 -0.427011,-0.40555 -3.966482,3.28117 -6.321578,3.16827 -0.57935,-0.0278 -1.163542,-0.435 -1.472777,-0.92475 -1.557387,-2.4665 -1.47788,-7.39163 -1.007173,-8.68784 0.216106,-0.5951 2.231393,-1.22515 2.459797,-1.47248 2.662369,-1.35333 5.333007,-2.92947 8.011914,-4.728415 2.662369,-1.798944 4.580599,-3.531874 5.754687,-5.198783 0.214974,-0.297073 0.429948,-0.660165 0.644922,-1.089268 0.214974,-0.429106 0.438216,-0.932483 0.669727,-1.510126 0.479557,-1.18829 0.719335,-2.063009 0.719335,-2.624147 0,-1.46886 -0.562239,-2.640652 -1.686718,-3.515368 -1.124479,-0.891217 -2.513542,-1.534878 -4.167188,-1.930976 -0.826823,-0.198046 -1.645377,-0.354838 -2.455664,-0.470363 -0.79375,-0.132033 -1.595768,-0.222808 -2.406054,-0.27232 -0.79375,-0.06601 -1.612305,-0.107277 -2.455664,-0.123778 -0.826823,-0.0165 -1.686719,-0.02477 -2.579688,-0.02477 z"
         style="font-style:normal;font-variant:normal;font-weight:normal;font-stretch:normal;font-size:50.79999924px;line-height:1.25;font-family:'Segoe Script';-inkscape-font-specification:'Segoe Script';letter-spacing:0px;word-spacing:0px;fill:#00a79d;fill-opacity:1;stroke:none;stroke-width:0.2643241" />
      <path
         inkscape:connector-curvature="0"
         id="path5601"
         d="m 51.152401,107.50866 -5.3e-4,5.2e-4 c -5.29e-4,0.002 -0.0011,0.002 -0.0016,0.003 1e-5,2.7e-4 -1.1e-5,8e-4 0,0.001 5.29e-4,-0.001 0.0016,-0.002 0.0021,-0.003 3.1e-5,-0.001 -7.5e-5,-7.9e-4 0,-0.002 z"
         style="font-style:normal;font-variant:normal;font-weight:normal;font-stretch:normal;font-size:50.79999924px;line-height:1.25;font-family:'Segoe Script';-inkscape-font-specification:'Segoe Script';letter-spacing:0px;word-spacing:0px;fill:#000000;fill-opacity:1;stroke:none;stroke-width:0.2643241" />
      <path
         inkscape:connector-curvature="0"
         id="path5599"
         d="m 51.288828,108.05845 c -0.0013,9e-5 -0.01125,7.9e-4 -0.0093,0.001 0.0052,0.002 0.01035,0.003 0.01551,0.005 -0.0021,-0.002 -0.0041,-0.004 -0.0062,-0.006 z"
         style="font-style:normal;font-variant:normal;font-weight:normal;font-stretch:normal;font-size:50.79999924px;line-height:1.25;font-family:'Segoe Script';-inkscape-font-specification:'Segoe Script';letter-spacing:0px;word-spacing:0px;fill:#000000;fill-opacity:1;stroke:none;stroke-width:0.2643241" />
      <path
         inkscape:connector-curvature="0"
         id="text817"
         d="m 51.36634,108.06207 c -0.01125,-0.002 -0.0223,-5.3e-4 -0.03359,5.2e-4 -0.0011,1.1e-4 -0.0042,5.3e-4 -0.0031,5.3e-4 0.03016,-0.002 0.03301,2.1e-4 0.04341,5.3e-4 -0.0024,-2.6e-4 -0.0044,-10e-4 -0.0067,-0.002 z"
         style="font-style:normal;font-variant:normal;font-weight:normal;font-stretch:normal;font-size:50.79999924px;line-height:1.25;font-family:'Segoe Script';-inkscape-font-specification:'Segoe Script';letter-spacing:0px;word-spacing:0px;fill:#000000;fill-opacity:1;stroke:none;stroke-width:0.2643241" />
      <path
         sodipodi:nodetypes="cccccccccccccccccccsccsccccccccccccccccsccccccscccccccccccccccccccccccccccccccccccscccccccccccccccccccccccccccccccccccccccccccccccccccccccccccccscsccccccccccccccccscscc"
         inkscape:connector-curvature="0"
         d="m 55.039593,83.812054 c -0.03359,-0.02498 -0.06233,-0.05823 -0.100756,-0.07494 -0.05633,-0.0245 -0.118012,-0.03519 -0.178438,-0.04653 -0.352134,-0.06606 -0.578136,-0.01348 -0.918945,0.06578 -0.113607,0.02757 -0.230013,0.04555 -0.340823,0.0827 -0.124783,0.04184 -0.244457,0.09781 -0.363636,0.153485 -0.272428,0.127274 -0.481272,0.2506 -0.741648,0.399714 -0.762762,0.436819 0.04679,-0.02129 -0.78612,0.448065 -0.149793,0.09001 -0.30413,0.172938 -0.449381,0.270012 -0.14655,0.09794 -0.282549,0.210639 -0.425016,0.314357 -0.147521,0.107397 -0.296979,0.212149 -0.444929,0.31897 -0.156572,0.113043 -0.311753,0.227994 -0.468632,0.340619 -0.163087,0.117087 -0.332772,0.22533 -0.491252,0.3485 -0.152149,0.118253 -0.293137,0.250034 -0.439709,0.375048 -0.127759,0.126733 -0.257857,0.251178 -0.38328,0.380195 -0.744432,0.76578 0.03521,-0.01446 -0.669587,0.730493 -0.508193,0.537152 -0.190383,0.17006 -0.722921,0.704283 -0.125103,0.125498 -0.242993,0.257896 -0.36449,0.386842 -0.113424,0.126776 -0.228166,0.2524 -0.340275,0.380326 -0.424736,0.484663 -0.219535,0.269838 -0.654939,0.753819 -0.431985,0.480182 -0.316709,0.325254 -0.737095,0.831888 -0.118819,0.143198 -0.233114,0.290045 -0.349671,0.435066 -0.109296,0.147836 -0.225589,0.290807 -0.327887,0.443503 -0.181393,0.270759 -0.391025,0.660327 -0.543319,0.947658 -0.266817,0.503402 -0.493644,1.001608 -0.723977,1.521907 -0.307972,0.587229 -0.605898,1.179458 -0.904563,1.77137 -0.106397,0.210863 -0.223583,0.416596 -0.320691,0.631838 -0.04672,0.103557 -0.484216,1.230139 -0.522994,1.329626 -0.280778,0.683848 -0.478607,1.396776 -0.677338,2.107132 -0.06649,0.23768 -0.137509,0.47425 -0.195797,0.71405 -0.107789,0.44345 -0.193215,0.94519 -0.27546,1.3942 -0.105373,0.66207 -0.129398,1.33184 -0.126307,2.00086 0.0011,0.21449 0.0016,0.42909 0.01156,0.64335 0.01609,0.34915 0.07375,0.90866 0.106894,1.2562 0.0324,0.20845 0.05514,0.41861 0.09721,0.62535 0.03534,0.17369 0.258279,0.99597 0.307054,1.17217 0.07888,0.28496 0.231958,0.83155 0.33209,1.11376 0.06155,0.17349 0.13635,0.34207 0.204523,0.51311 0.0999,0.22127 0.359394,0.80546 0.472389,1.01759 0.08657,0.16252 0.187616,0.31702 0.281771,0.47533 0.09266,0.15579 0.185423,0.31152 0.278678,0.46697 0.08899,0.14834 0.182776,0.29389 0.26806,0.44436 0.08413,0.14844 0.15999,0.30137 0.239985,0.45204 0.202694,0.37189 0.25687,0.49708 0.4997,0.84189 0.09225,0.131 0.192476,0.25633 0.292404,0.38165 0.3004,0.37672 0.623459,0.73514 0.943628,1.09513 0.431636,0.48542 0.97409,0.84937 1.469253,1.26405 1.010152,0.84595 -0.325401,-0.2302 0.714425,0.59989 0.135025,0.0931 0.27005,0.1863 0.405074,0.27943 0.137494,0.0899 0.27686,0.17717 0.412481,0.26989 0.408537,0.27935 0.401605,0.31869 0.84991,0.54658 0.161396,0.082 0.752202,0.32524 0.923777,0.39691 0.01402,0.007 0.876699,0.40553 0.881316,0.40742 0.156089,0.0639 0.318053,0.11258 0.476203,0.17126 0.160123,0.0594 0.320016,0.11948 0.47857,0.18291 0.795057,0.318 0.174704,0.10427 1.013233,0.37013 0.91414,0.23691 0.1412,0.018 1.063569,0.33467 0.190447,0.0654 0.381759,0.12875 0.575477,0.18385 0.198315,0.0565 0.401484,0.0949 0.600027,0.15047 0.216059,0.0605 0.424288,0.14906 0.643348,0.19777 0.220196,0.049 0.446825,0.0629 0.670239,0.0944 0.460463,0.0133 0.910252,0.1329 1.368822,0.16177 0.239205,0.0151 0.479433,-0.006 0.71905,-1.8e-4 0.258781,0.006 0.517147,0.0459 0.775761,0.0348 0.165987,-0.007 1.387364,-0.19296 1.544294,-0.21627 0.853583,-0.15885 1.722662,-0.26519 2.552433,-0.53201 0.287557,-0.0925 0.561234,-0.22329 0.844817,-0.32717 0.300961,-0.11024 0.613235,-0.19064 0.908537,-0.31508 0.290041,-0.12223 0.562451,-0.28222 0.843677,-0.42334 0.874011,-0.38565 0.934844,-0.38151 1.756923,-0.86778 0.272703,-0.16131 0.528174,-0.35039 0.801613,-0.51046 0.287716,-0.16845 0.596207,-0.30071 0.880727,-0.47443 0.281845,-0.17209 0.543898,-0.37429 0.815848,-0.56145 l 0.891611,-0.5428 c 2.308746,-1.6611 -0.600091,0.45135 1.6769,-1.26547 0.297921,-0.22463 0.615516,-0.4232 0.908328,-0.65437 0.294746,-0.23269 0.563713,-0.49609 0.852646,-0.73587 0.303718,-0.25205 0.628708,-0.47875 0.924994,-0.73938 0.293217,-0.25796 0.561015,-0.54309 0.841523,-0.81463 0.04015,-0.0405 1.634803,-1.64957 1.663676,-1.68171 0.257369,-0.28653 0.48558,-0.59766 0.72874,-0.8962 0.239419,-0.29394 0.478038,-0.58853 0.718992,-0.88125 0.243535,-0.29584 0.500266,-0.58119 0.734462,-0.88439 0.230873,-0.29891 0.439907,-0.61384 0.65986,-0.92078 0.685816,-1.2057 0.414184,-0.5954 0.837475,-1.82082 0.414359,-0.64762 1.336149,-0.0654 0.92179,0.58223 v 0 c -0.950076,0.92091 -0.489141,0.41698 -1.369536,1.52364 -0.276286,0.36103 -1.126861,1.47971 -1.415669,1.82796 -0.900496,1.08583 -0.604698,0.66145 -1.574615,1.69417 -2.102387,2.23853 0.495975,-0.42396 -1.634427,1.7377 -1.150919,1.07932 -0.584988,0.52881 -1.697659,1.65168 -0.274632,0.26347 -0.566684,0.50848 -0.844531,0.7686 -0.275686,0.2581 -0.533197,0.5354 -0.815893,0.78589 -0.405143,0.359 -1.258898,1.0028 -1.688418,1.3327 -1.4802,1.16265 -0.168912,0.17195 -1.683273,1.20888 -0.283031,0.1938 -0.5451,0.41788 -0.835959,0.59989 -0.277316,0.17351 -0.576305,0.31022 -0.864968,0.46438 -1.289378,0.68861 -0.490771,0.24731 -1.768258,0.9694 -1.204386,0.52147 -0.606103,0.24262 -1.794251,0.83787 -0.293719,0.12776 -0.601591,0.22064 -0.901639,0.33295 -0.868728,0.32517 -1.730759,0.6797 -2.641669,0.87619 -1.637713,0.31817 -0.05629,0.0363 -1.691574,0.25352 -0.286551,0.038 -0.568288,0.11185 -0.856287,0.13689 -0.263387,0.0229 -0.528814,9.9e-4 -0.793154,0.007 -1.166461,0.0237 -0.428038,0.0588 -1.547162,-0.0399 -2.850891,-0.41942 1.446885,0.19196 -1.465215,-0.15149 -0.22098,-0.026 -0.437544,-0.0809 -0.656614,-0.11981 -0.214407,-0.038 -0.429315,-0.0733 -0.643802,-0.1108 -0.782156,-0.13705 -0.431126,-0.0506 -1.155216,-0.2852 -0.754534,-0.22397 -0.371729,-0.11984 -1.148657,-0.31149 -0.47508,-0.1395 -0.569677,-0.21157 -1.029253,-0.38775 -0.179281,-0.0688 -0.363617,-0.12417 -0.541962,-0.19526 -0.172304,-0.0687 -0.339579,-0.14923 -0.50937,-0.22384 -0.154546,-0.0876 -0.309793,-0.17414 -0.463638,-0.26302 -0.161723,-0.0934 -0.31945,-0.19375 -0.483044,-0.28392 -0.175236,-0.0966 -0.355166,-0.1845 -0.533083,-0.27611 -0.177601,-0.0914 -0.361053,-0.17229 -0.533466,-0.27305 -0.148354,-0.0867 -0.757578,-0.51683 -0.896662,-0.61404 -0.252346,-0.17135 -0.673661,-0.44835 -0.911474,-0.6449 -0.131479,-0.10869 -0.251751,-0.23015 -0.374557,-0.34842 -0.396653,-0.382 -0.758399,-0.79702 -1.165381,-1.16867 -0.371547,-0.37398 -0.458214,-0.44155 -0.787638,-0.85082 -0.117941,-0.14653 -0.228455,-0.29887 -0.338656,-0.45122 -0.343427,-0.47481 -0.666906,-0.96464 -0.966486,-1.46788 -0.08527,-0.1584 -0.176792,-0.31361 -0.255802,-0.47517 -0.07795,-0.15941 -0.143851,-0.32437 -0.214733,-0.48701 -0.153813,-0.35292 -0.296916,-0.71043 -0.454195,-1.06185 -0.0867,-0.19372 -0.185068,-0.38216 -0.270557,-0.5764 -0.08737,-0.19851 -0.165256,-0.40102 -0.247883,-0.60152 -0.169537,-0.48216 -0.280818,-0.7681 -0.411811,-1.26237 -0.09089,-0.34293 -0.209039,-0.93037 -0.26408,-1.27846 -0.07272,-0.45992 -0.107215,-0.92531 -0.19032,-1.38382 -0.02545,-0.23888 -0.0602,-0.47697 -0.0764,-0.71665 -0.01609,-0.23795 -0.01879,-0.47667 -0.0204,-0.71513 -0.0016,-0.24072 -5.29e-4,-0.48162 0.0108,-0.72208 0.03484,-0.74668 0.15217,-1.48501 0.283668,-2.2199 0.05019,-0.25364 0.09172,-0.50915 0.15058,-0.76096 0.05762,-0.24648 0.133538,-0.48841 0.198646,-0.73305 0.183753,-0.690453 0.199427,-0.804181 0.411245,-1.48775 0.07543,-0.243447 0.162234,-0.483306 0.238704,-0.726436 0.07764,-0.24684 0.149053,-0.495569 0.223578,-0.743354 0.601197,-1.811588 -0.127735,0.349823 0.505754,-1.420814 0.08338,-0.233045 0.152503,-0.470959 0.235736,-0.704051 0.07702,-0.215686 0.16415,-0.427673 0.244912,-0.642001 0.172555,-0.457926 0.278174,-0.75 0.445193,-1.20662 0.245242,-0.583306 0.477017,-1.178816 0.776282,-1.737776 0.176032,-0.328788 0.461007,-0.765187 0.661987,-1.077721 0.116118,-0.180565 0.233347,-0.360425 0.35002,-0.540637 1.381475,-1.920582 -0.630465,0.870462 0.701014,-0.957414 0.112882,-0.154964 0.218337,-0.315248 0.333293,-0.4687 0.331404,-0.44238 0.7019,-0.851843 1.09044,-1.245126 1.254075,-1.302857 -0.534715,0.568765 0.734306,-0.804332 0.51302,-0.555093 1.109991,-1.001571 1.713347,-1.453441 0.160205,-0.125083 0.323974,-0.245782 0.48061,-0.375246 0.155525,-0.128542 0.30271,-0.266739 0.455507,-0.398472 0.147174,-0.126884 0.296278,-0.251533 0.444378,-0.377349 0.148164,-0.125868 0.293389,-0.255236 0.444415,-0.377699 0.14686,-0.119088 0.302517,-0.227216 0.449006,-0.346757 0.146508,-0.119558 0.286443,-0.246857 0.429665,-0.370285 0.356389,-0.297552 0.462034,-0.401231 0.845151,-0.66043 0.136503,-0.09235 0.279064,-0.175559 0.41978,-0.26145 0.414006,-0.252706 0.838935,-0.489308 1.230127,-0.777283 0.139274,-0.07302 0.275727,-0.15162 0.417822,-0.219062 0.484362,-0.229887 -5.91154,-2.239553 -5.457052,-2.531267 1.960684,-0.194811 16.665042,0.0552 16.206195,1.592795 -0.102836,0.344603 -10.384716,9.178912 -10.824142,9.222573 z"
         id="path5560"
         style="fill:#f9f9f9;fill-opacity:1;stroke:#00a79d;stroke-width:0.19935815;stroke-linecap:round;stroke-linejoin:round;stroke-miterlimit:10.30000019;stroke-dasharray:none;stroke-dashoffset:0;stroke-opacity:1"
         inkscape:export-filename="/home/luan/workspace/src/github.com/luan/pairist/static/path5560.png"
         inkscape:export-xdpi="18.702574"
         inkscape:export-ydpi="18.702574" />
      <path
         inkscape:connector-curvature="0"
         id="path5603"
         d="m 50.93133,88.676195 c -0.278761,0.02132 -0.531673,0.08807 -0.758736,0.200253 -0.34561,0.468941 -0.622638,0.964246 -0.831082,1.485916 -0.208445,0.521669 -0.371595,1.05568 -0.489449,1.602031 -0.116574,0.562056 -0.218769,1.209937 -0.306587,1.943642 -0.04391,0.366852 -0.08368,0.693876 -0.119323,0.981076 -0.03564,0.287198 -0.06714,0.534572 -0.09451,0.742118 -0.130553,0.752775 -0.229841,1.526865 -0.297866,2.322273 -0.06802,0.795407 -0.131221,1.740585 -0.18959,2.835536 -0.02855,0.55532 -0.05965,1.07924 -0.09331,1.57173 -0.019,0.49138 -0.0466,0.96762 -0.08283,1.42871 -0.05826,1.45843 -0.09713,2.70202 -0.116607,3.73078 -0.01948,1.02876 0.0066,1.98291 0.07834,2.86246 l 0.0557,0.68322 c 0.610749,7.49185 1.723062,11.17608 3.336938,11.05269 0.557521,-0.0426 0.99092,-0.24962 1.300198,-0.62095 0.309278,-0.37136 0.43959,-0.85543 0.390935,-1.45227 -0.05378,-0.65966 -0.137867,-1.41972 -0.252322,-2.2802 -0.115715,-0.87618 -0.256348,-1.87689 -0.421895,-3.00214 -0.16555,-1.12522 -0.301696,-2.07097 -0.40845,-2.83721 -0.108034,-0.78194 -0.17998,-1.3928 -0.215831,-1.83257 l -0.06338,-0.77745 c -0.106979,-0.72127 -0.140446,-1.02857 -0.194019,-1.54237 -0.05519,-0.51015 -0.01549,-0.51761 -0.01557,-0.69468 2.4e-5,-0.0293 0.0018,-0.0587 0.0039,-0.0877 9.18e-4,-0.0121 -0.0029,-0.0407 0.0043,-0.0369 -5.72e-4,-0.005 -0.0013,-0.01 -0.0016,-0.0142 -0.0053,-0.0626 -0.0048,-0.0933 -2.32e-4,-0.15555 0.0013,-0.0174 -10e-4,-0.0359 0.0055,-0.0518 0.0029,-0.007 0.006,0.0306 0.006,0.0228 9.7e-5,-0.0161 -0.0038,-0.032 -0.0058,-0.0479 -0.0085,-0.0695 -0.01392,-0.13624 -0.01038,-0.20614 7.48e-4,-0.0167 0.0014,-0.0334 0.0047,-0.0497 5.46e-4,-0.002 0.0047,0.009 0.0046,0.006 -6.66e-4,-0.0254 -0.0041,-0.0506 -0.0062,-0.0762 -2.91e-4,-0.0294 -0.0015,-0.0586 -7.43e-4,-0.0877 3.78e-4,-0.0213 0.01002,-0.11041 0.01167,-0.12289 0.0012,-0.009 0.0041,-0.0172 0.0052,-0.026 0.0029,-0.0223 0.0042,-0.045 0.007,-0.0673 0.0013,-0.01 0.0036,-0.0196 0.0055,-0.029 0.0026,-0.0293 0.0051,-0.0585 0.0076,-0.0875 0.0015,-0.007 0.0041,-0.013 0.0048,-0.0196 0.0029,-0.0254 0.0035,-0.051 0.0062,-0.0765 0.0011,-0.0104 0.0043,-0.0205 0.0053,-0.031 0.003,-0.0303 0.0037,-0.0611 0.0069,-0.0913 6.88e-4,-0.009 0.0031,-0.0168 0.0049,-0.0251 0.0031,-0.0287 0.0061,-0.057 0.0092,-0.0856 0.0018,-0.008 0.0043,-0.0151 0.0055,-0.0226 0.0039,-0.0245 0.0061,-0.0493 0.01014,-0.0738 0.0014,-0.009 0.0049,-0.0168 0.0062,-0.0257 0.02784,-0.35656 0.03476,-0.42085 0.03266,-0.70282 0.0016,-0.0129 -0.0044,-0.0423 0.0071,-0.038 2.47e-4,1.5e-4 1.46e-4,7.5e-4 5.48e-4,9.4e-4 -0.0021,-0.026 -0.0049,-0.0539 -0.0031,-0.0382 -5e-6,-0.0117 -2.7e-4,-0.023 -1.1e-5,-0.0345 -2e-6,-0.006 5.75e-4,-0.0224 0.001,-0.0169 -0.01042,-0.3935 -0.02552,-0.85653 -0.02904,-1.21074 0.0094,-0.42745 0.01696,-0.87843 0.02257,-1.35299 0.0043,-0.49025 0.0147,-0.99677 0.03113,-1.51956 0.02983,-0.53964 0.06762,-1.071962 0.113401,-1.596998 0.04449,-0.540742 0.08422,-1.049509 0.119164,-1.526305 0.04833,-0.493623 0.09062,-0.970979 0.126846,-1.432069 0.05661,-0.573276 0.130153,-1.029316 0.220637,-1.368121 0.02166,-0.09648 0.07453,-0.35339 0.158615,-0.770726 0.09875,-0.418458 0.195588,-0.860475 0.290501,-1.32605 0.109584,-0.466698 0.199722,-0.900303 0.270414,-1.30081 0.08408,-0.417336 0.122923,-0.66527 0.116521,-0.743801 -0.04994,-0.612543 -0.228368,-1.080923 -0.535297,-1.405144 -0.293538,-0.341371 -0.711732,-0.491143 -1.254581,-0.449636 z"
         style="font-style:normal;font-variant:normal;font-weight:normal;font-stretch:normal;font-size:50.79999924px;line-height:1.25;font-family:'Segoe Script';-inkscape-font-specification:'Segoe Script';letter-spacing:0px;word-spacing:0px;fill:#00a79d;fill-opacity:1;stroke:none;stroke-width:0.24363728" />
    </g>
  </g>
</svg>
