<?xml version="1.0" encoding="UTF-8" standalone="no"?>
<!-- Created with Inkscape (http://www.inkscape.org/) -->

<svg
   xmlns:dc="http://purl.org/dc/elements/1.1/"
   xmlns:cc="http://creativecommons.org/ns#"
   xmlns:rdf="http://www.w3.org/1999/02/22-rdf-syntax-ns#"
   xmlns:svg="http://www.w3.org/2000/svg"
   xmlns="http://www.w3.org/2000/svg"
   xmlns:sodipodi="http://sodipodi.sourceforge.net/DTD/sodipodi-0.dtd"
   xmlns:inkscape="http://www.inkscape.org/namespaces/inkscape"
   width="165.29285"
   height="165.52045"
   viewBox="0 0 43.733731 43.793952"
   version="1.1"
   id="svg8"
   sodipodi:docname="pairist.svg"
   inkscape:version="0.92.2 5c3e80d, 2017-08-06"
   inkscape:export-filename="/home/luan/Downloads/pairist.png"
   inkscape:export-xdpi="174.23"
   inkscape:export-ydpi="174.23">
  <defs
     id="defs2" />
  <sodipodi:namedview
     id="base"
     pagecolor="#ffffff"
     bordercolor="#666666"
     borderopacity="1.0"
     inkscape:pageopacity="0.0"
     inkscape:pageshadow="2"
     inkscape:zoom="7.2407736"
     inkscape:cx="51.885354"
     inkscape:cy="88.808331"
     inkscape:document-units="mm"
     inkscape:current-layer="g5672"
     showgrid="false"
     inkscape:window-width="3840"
     inkscape:window-height="2088"
     inkscape:window-x="0"
     inkscape:window-y="72"
     inkscape:window-maximized="0"
     showborder="true"
     units="px"
     fit-margin-top="0"
     fit-margin-left="0"
     fit-margin-right="0"
     fit-margin-bottom="0" />
  <metadata
     id="metadata5">
    <rdf:RDF>
      <cc:Work
         rdf:about="">
        <dc:format>image/svg+xml</dc:format>
        <dc:type
           rdf:resource="http://purl.org/dc/dcmitype/StillImage" />
        <dc:title></dc:title>
      </cc:Work>
    </rdf:RDF>
  </metadata>
  <g
     inkscape:label="Layer 1"
     inkscape:groupmode="layer"
     id="layer1"
     transform="translate(-38.206401,-78.413252)">
    <g
       id="g5672">
      <path
         inkscape:connector-curvature="0"
         transform="scale(0.26458333)"
         id="path5605"
         d="m 231.56641,312.63281 c -3.9375,0 -9.84375,0.46875 -17.71875,1.40625 -3.9375,0.5 -7.84375,1.0625 -11.71875,1.6875 -3.8125,0.5625 -7.625,1.25 -11.4375,2.0625 -7.625,1.625 -13.25,3.21875 -16.875,4.78125 -3.375,1.4375 -5.96875,3.09375 -7.78125,4.96875 -1.75,1.875 -2.625,4.34375 -2.625,7.40625 0,1.375 0.4375,2.5 1.3125,3.375 0.9375,0.8125 2.09375,1.21875 3.46875,1.21875 0.75,0 1.84375,-0.28125 3.28125,-0.84375 12.25,-4.1875 21.71875,-7 28.40625,-8.4375 13.8125,-2.6875 26.875,-4.03125 39.1875,-4.03125 2.0625,0 4.28125,0.0312 6.65625,0.0937 2.4375,0.0625 4.9375,0.21875 7.5,0.46875 2.5625,0.1875 5.15625,0.5 7.78125,0.9375 2.625,0.375 5.21875,0.90625 7.78125,1.59375 5.125,1.375 7.6875,3.375 7.6875,6 0,5.6875 -3.25,11.84375 -9.75,18.46875 -3.25,3.25 -6.59375,6.25 -10.03125,9 -3.375,2.75 -6.875,5.21875 -10.5,7.40625 -5.5,3.3125 -18.98438,9.5 -24.79688,12.25 -3.35368,1.60393 1.75423,-7.92179 -2.41211,-9.70117 -2.42374,-1.03514 -6.17317,1.65465 -8.63281,2.68555 -0.56145,0.23532 -0.24325,12.34093 -0.81445,12.57812 -3.75,1.5625 -7.0625,2.9375 -9.9375,4.125 v 0.002 c 0.001,0.0505 1.9e-4,0.0996 0,0.15039 -2e-5,0.0147 -0.61295,1.9298 -0.7465,4.16382 -0.12278,2.05375 0.10151,5.0796 0.18781,6.8542 0.10408,2.14027 -0.35779,4.31927 -0.35999,4.36259 -0.003,0.10658 -0.003,-0.0729 0,0.084 1.4e-4,0.0692 -1.3e-4,0.1375 0,0.20703 1.3e-4,0.0605 3e-5,0.12289 0,0.18359 4.29649,-1.49855 8.56913,-3.10404 12.8125,-4.84179 0.62541,-0.25961 -1.88155,25.41395 5.71484,34.0664 4.48676,5.1105 10.0553,7.48689 19.51563,5.95117 4.44748,-0.72198 21.44887,-11.33337 21.47461,-14.33007 0.0257,-2.99671 -1.24742,-3.4525 -2.86133,-4.98829 -1.6139,-1.5358 -14.99143,12.42561 -23.89258,11.99805 -2.18967,-0.10518 -4.39764,-1.64731 -5.5664,-3.50195 -5.88619,-9.34051 -5.58569,-27.99172 -3.80664,-32.90039 0.81678,-2.25361 8.43361,-4.63957 9.29687,-5.57618 10.0625,-5.12499 20.15625,-11.09375 30.28125,-17.90624 10.0625,-6.8125 17.3125,-13.37501 21.75,-19.6875 0.8125,-1.125 1.625,-2.50001 2.4375,-4.125 0.8125,-1.625 1.65625,-3.53126 2.53125,-5.71876 1.8125,-4.49999 2.71875,-7.8125 2.71875,-9.9375 0,-5.56249 -2.125,-10 -6.375,-13.3125 -4.25,-3.37499 -9.5,-5.8125 -15.75,-7.3125 -3.125,-0.74999 -6.21875,-1.34375 -9.28125,-1.78124 -3,-0.5 -6.03125,-0.84376 -9.09375,-1.03126 -3,-0.24999 -6.09375,-0.40625 -9.28125,-0.46874 -3.125,-0.0625 -6.375,-0.0938 -9.75,-0.0938 z"
         style="font-style:normal;font-variant:normal;font-weight:normal;font-stretch:normal;font-size:50.79999924px;line-height:1.25;font-family:'Segoe Script';-inkscape-font-specification:'Segoe Script';letter-spacing:0px;word-spacing:0px;fill:#00a79d;fill-opacity:1;stroke:none;stroke-width:0.99999994" />
      <path
         inkscape:connector-curvature="0"
         transform="scale(0.26458333)"
         id="path5601"
         d="m 193.33191,406.54698 -0.002,0.002 c -0.002,0.006 -0.004,0.009 -0.006,0.0117 4e-5,0.001 -4e-5,0.003 0,0.004 0.002,-0.004 0.006,-0.008 0.008,-0.01 1.2e-4,-0.005 -2.8e-4,-0.003 0,-0.008 z"
         style="font-style:normal;font-variant:normal;font-weight:normal;font-stretch:normal;font-size:50.79999924px;line-height:1.25;font-family:'Segoe Script';-inkscape-font-specification:'Segoe Script';letter-spacing:0px;word-spacing:0px;fill:#000000;fill-opacity:1;stroke:none;stroke-width:0.99999994" />
      <path
         inkscape:connector-curvature="0"
         transform="scale(0.26458333)"
         id="path5599"
         d="m 193.84754,408.62901 c -0.005,3.4e-4 -0.0425,0.003 -0.0352,0.004 0.0195,0.006 0.0391,0.0117 0.0586,0.0176 -0.008,-0.007 -0.0156,-0.0143 -0.0234,-0.0215 z"
         style="font-style:normal;font-variant:normal;font-weight:normal;font-stretch:normal;font-size:50.79999924px;line-height:1.25;font-family:'Segoe Script';-inkscape-font-specification:'Segoe Script';letter-spacing:0px;word-spacing:0px;fill:#000000;fill-opacity:1;stroke:none;stroke-width:0.99999994" />
      <path
         inkscape:connector-curvature="0"
         transform="scale(0.26458333)"
         id="text817"
         d="m 194.1405,408.64271 c -0.0425,-0.008 -0.0843,-0.002 -0.12695,0.002 -0.004,4.2e-4 -0.0159,0.002 -0.0117,0.002 0.11399,-0.009 0.12475,7.8e-4 0.16407,0.002 -0.009,-10e-4 -0.0168,-0.005 -0.0254,-0.006 z"
         style="font-style:normal;font-variant:normal;font-weight:normal;font-stretch:normal;font-size:50.79999924px;line-height:1.25;font-family:'Segoe Script';-inkscape-font-specification:'Segoe Script';letter-spacing:0px;word-spacing:0px;fill:#000000;fill-opacity:1;stroke:none;stroke-width:0.99999994" />
      <path
         sodipodi:nodetypes="cccccccccccccccccccsccsccccccccccccccccsccccccscccccccccccccccccccccccccccccccccccscccccccccccccccccccccccccccccccccccccccccccccccccccccccccccccscsccccccccccccccccscscc"
         inkscape:connector-curvature="0"
         d="m 55.039593,83.822452 c -0.03359,-0.02503 -0.06233,-0.05834 -0.100756,-0.07509 -0.05633,-0.02455 -0.118012,-0.03526 -0.178438,-0.04662 -0.352134,-0.06619 -0.578136,-0.01351 -0.918945,0.06591 -0.113607,0.02762 -0.230013,0.04564 -0.340823,0.08286 -0.124783,0.04192 -0.244457,0.098 -0.363636,0.153786 -0.272428,0.127524 -0.481272,0.251092 -0.741648,0.400498 -0.762762,0.437677 0.04679,-0.02133 -0.78612,0.448945 -0.149793,0.09019 -0.30413,0.173277 -0.449381,0.270542 -0.14655,0.09813 -0.282549,0.211052 -0.425016,0.314973 -0.147521,0.107608 -0.296979,0.212566 -0.444929,0.319596 -0.156572,0.113265 -0.311753,0.228442 -0.468632,0.341288 -0.163087,0.117316 -0.332772,0.225772 -0.491252,0.349184 -0.152149,0.118485 -0.293137,0.250524 -0.439709,0.375783 -0.127759,0.126982 -0.257857,0.251671 -0.38328,0.380942 -0.744432,0.767282 0.03521,-0.01449 -0.669587,0.731926 -0.508193,0.538206 -0.190383,0.170394 -0.722921,0.705665 -0.125103,0.125744 -0.242993,0.258402 -0.36449,0.387601 -0.113424,0.127025 -0.228166,0.252895 -0.340275,0.381072 -0.424736,0.485614 -0.219535,0.270368 -0.654939,0.755299 -0.431985,0.481124 -0.316709,0.325892 -0.737095,0.83352 -0.118819,0.143479 -0.233114,0.290614 -0.349671,0.43592 -0.109296,0.148126 -0.225589,0.291377 -0.327887,0.444373 -0.181393,0.27129 -0.391025,0.661623 -0.543319,0.949518 -0.266817,0.504389 -0.493644,1.003573 -0.723977,1.524893 -0.307972,0.588381 -0.605898,1.181772 -0.904563,1.774846 -0.106397,0.211277 -0.223583,0.417413 -0.320691,0.633078 -0.04672,0.10376 -0.484216,1.232553 -0.522994,1.332235 -0.280778,0.68519 -0.478607,1.399517 -0.677338,2.111265 -0.06649,0.23815 -0.137509,0.47519 -0.195797,0.71546 -0.107789,0.44432 -0.193215,0.94704 -0.27546,1.39693 -0.105373,0.66337 -0.129398,1.33445 -0.126307,2.00479 0.0011,0.21491 0.0016,0.42993 0.01156,0.64461 0.01609,0.34984 0.07375,0.91044 0.106894,1.25867 0.0324,0.20885 0.05514,0.41943 0.09721,0.62657 0.03534,0.17403 0.258279,0.99793 0.307054,1.17447 0.07888,0.28552 0.231958,0.83318 0.33209,1.11595 0.06155,0.17383 0.13635,0.34274 0.204523,0.51411 0.0999,0.22171 0.359394,0.80705 0.472389,1.01959 0.08657,0.16284 0.187616,0.31764 0.281771,0.47626 0.09266,0.1561 0.185423,0.31214 0.278678,0.46789 0.08899,0.14863 0.182776,0.29447 0.26806,0.44523 0.08413,0.14873 0.15999,0.30196 0.239985,0.45293 0.202694,0.37262 0.25687,0.49806 0.4997,0.84354 0.09225,0.13126 0.192476,0.25683 0.292404,0.3824 0.3004,0.37746 0.623459,0.73658 0.943628,1.09728 0.431636,0.48637 0.97409,0.85104 1.469253,1.26653 1.010152,0.84761 -0.325401,-0.23065 0.714425,0.60107 0.135025,0.0933 0.27005,0.18666 0.405074,0.27998 0.137494,0.0901 0.27686,0.17751 0.412481,0.27042 0.408537,0.27989 0.401605,0.31931 0.84991,0.54765 0.161396,0.0822 0.752202,0.32588 0.923777,0.39769 0.01402,0.007 0.876699,0.40632 0.881316,0.40822 0.156089,0.064 0.318053,0.1128 0.476203,0.17159 0.160123,0.0595 0.320016,0.11972 0.47857,0.18327 0.795057,0.31862 0.174704,0.10448 1.013233,0.37086 0.91414,0.23737 0.1412,0.018 1.063569,0.33532 0.190447,0.0655 0.381759,0.12901 0.575477,0.18421 0.198315,0.0566 0.401484,0.0951 0.600027,0.15077 0.216059,0.0606 0.424288,0.14935 0.643348,0.19816 0.220196,0.0491 0.446825,0.063 0.670239,0.0946 0.460463,0.0133 0.910252,0.13316 1.368822,0.16209 0.239205,0.0151 0.479433,-0.006 0.71905,-1.8e-4 0.258781,0.006 0.517147,0.046 0.775761,0.0349 0.165987,-0.007 1.387364,-0.19334 1.544294,-0.2167 0.853583,-0.15916 1.722662,-0.26571 2.552433,-0.53305 0.287557,-0.0927 0.561234,-0.22373 0.844817,-0.32781 0.300961,-0.11046 0.613235,-0.19102 0.908537,-0.3157 0.290041,-0.12247 0.562451,-0.28277 0.843677,-0.42417 0.874011,-0.38641 0.934844,-0.38226 1.756923,-0.86948 0.272703,-0.16163 0.528174,-0.35108 0.801613,-0.51147 0.287716,-0.16878 0.596207,-0.3013 0.880727,-0.47536 0.281845,-0.17242 0.543898,-0.37502 0.815848,-0.56255 l 0.891611,-0.54386 c 2.308746,-1.66436 -0.600091,0.45223 1.6769,-1.26796 0.297921,-0.22507 0.615516,-0.42403 0.908328,-0.65565 0.294746,-0.23315 0.563713,-0.49706 0.852646,-0.73731 0.303718,-0.25255 0.628708,-0.47969 0.924994,-0.74084 0.293217,-0.25846 0.561015,-0.54415 0.841523,-0.81622 0.04015,-0.0406 1.634803,-1.65281 1.663676,-1.68501 0.257369,-0.2871 0.48558,-0.59884 0.72874,-0.89796 0.239419,-0.29452 0.478038,-0.58969 0.718992,-0.88298 0.243535,-0.29642 0.500266,-0.58233 0.734462,-0.88613 0.230873,-0.29949 0.439907,-0.61504 0.65986,-0.92258 0.685816,-1.20807 0.414184,-0.59657 0.837475,-1.8244 0.414359,-0.64889 1.336149,-0.0655 0.92179,0.58338 v 0 c -0.950076,0.92271 -0.489141,0.41779 -1.369536,1.52663 -0.276286,0.36173 -1.126861,1.48261 -1.415669,1.83154 -0.900496,1.08796 -0.604698,0.66275 -1.574615,1.6975 -2.102387,2.24292 0.495975,-0.42479 -1.634427,1.74111 -1.150919,1.08143 -0.584988,0.52984 -1.697659,1.65492 -0.274632,0.26399 -0.566684,0.50948 -0.844531,0.77011 -0.275686,0.2586 -0.533197,0.53645 -0.815893,0.78743 -0.405143,0.3597 -1.258898,1.00477 -1.688418,1.33531 -1.4802,1.16493 -0.168912,0.17229 -1.683273,1.21126 -0.283031,0.19418 -0.5451,0.4187 -0.835959,0.60106 -0.277316,0.17385 -0.576305,0.31083 -0.864968,0.46529 -1.289378,0.68997 -0.490771,0.2478 -1.768258,0.97131 -1.204386,0.52249 -0.606103,0.24309 -1.794251,0.83951 -0.293719,0.12801 -0.601591,0.22107 -0.901639,0.3336 -0.868728,0.32581 -1.730759,0.68104 -2.641669,0.87791 -1.637713,0.3188 -0.05629,0.0364 -1.691574,0.25402 -0.286551,0.0381 -0.568288,0.11207 -0.856287,0.13716 -0.263387,0.0229 -0.528814,9.9e-4 -0.793154,0.007 -1.166461,0.0237 -0.428038,0.0589 -1.547162,-0.04 -2.850891,-0.42024 1.446885,0.19234 -1.465215,-0.15178 -0.22098,-0.0261 -0.437544,-0.0811 -0.656614,-0.12005 -0.214407,-0.0381 -0.429315,-0.0734 -0.643802,-0.11102 -0.782156,-0.13731 -0.431126,-0.0507 -1.155216,-0.28575 -0.754534,-0.22441 -0.371729,-0.12008 -1.148657,-0.31211 -0.47508,-0.13977 -0.569677,-0.21198 -1.029253,-0.38851 -0.179281,-0.0689 -0.363617,-0.12441 -0.541962,-0.19564 -0.172304,-0.0688 -0.339579,-0.14952 -0.50937,-0.22428 -0.154546,-0.0878 -0.309793,-0.17448 -0.463638,-0.26354 -0.161723,-0.0936 -0.31945,-0.19413 -0.483044,-0.28447 -0.175236,-0.0968 -0.355166,-0.18486 -0.533083,-0.27665 -0.177601,-0.0916 -0.361053,-0.17263 -0.533466,-0.27359 -0.148354,-0.0869 -0.757578,-0.51784 -0.896662,-0.61525 -0.252346,-0.17168 -0.673661,-0.44922 -0.911474,-0.64616 -0.131479,-0.1089 -0.251751,-0.2306 -0.374557,-0.3491 -0.396653,-0.38275 -0.758399,-0.79859 -1.165381,-1.17097 -0.371547,-0.37471 -0.458214,-0.44241 -0.787638,-0.85249 -0.117941,-0.14681 -0.228455,-0.29945 -0.338656,-0.4521 -0.343427,-0.47574 -0.666906,-0.96654 -0.966486,-1.47076 -0.08527,-0.15871 -0.176792,-0.31423 -0.255802,-0.47611 -0.07795,-0.15972 -0.143851,-0.325 -0.214733,-0.48796 -0.153813,-0.35361 -0.296916,-0.71183 -0.454195,-1.06393 -0.0867,-0.1941 -0.185068,-0.38291 -0.270557,-0.57754 -0.08737,-0.1989 -0.165256,-0.4018 -0.247883,-0.6027 -0.169537,-0.4831 -0.280818,-0.7696 -0.411811,-1.26484 -0.09089,-0.34361 -0.209039,-0.9322 -0.26408,-1.28097 -0.07272,-0.46082 -0.107215,-0.92713 -0.19032,-1.38654 -0.02545,-0.23935 -0.0602,-0.4779 -0.0764,-0.71805 -0.01609,-0.23842 -0.01879,-0.47761 -0.0204,-0.71654 -0.0016,-0.24119 -5.29e-4,-0.48256 0.0108,-0.72349 0.03484,-0.74815 0.15217,-1.48793 0.283668,-2.22426 0.05019,-0.25414 0.09172,-0.51015 0.15058,-0.76245 0.05762,-0.24697 0.133538,-0.48937 0.198646,-0.73449 0.183753,-0.691812 0.199427,-0.805764 0.411245,-1.490674 0.07543,-0.243925 0.162234,-0.484254 0.238704,-0.727861 0.07764,-0.247325 0.149053,-0.496542 0.223578,-0.744813 0.601197,-1.815143 -0.127735,0.350509 0.505754,-1.423602 0.08338,-0.233502 0.152503,-0.471883 0.235736,-0.705433 0.07702,-0.216109 0.16415,-0.428512 0.244912,-0.64326 0.172555,-0.458825 0.278174,-0.751472 0.445193,-1.208988 0.245242,-0.584451 0.477017,-1.181129 0.776282,-1.741186 0.176032,-0.329433 0.461007,-0.766689 0.661987,-1.079836 0.116118,-0.180919 0.233347,-0.361132 0.35002,-0.541698 1.381475,-1.924351 -0.630465,0.87217 0.701014,-0.959292 0.112882,-0.155269 0.218337,-0.315867 0.333293,-0.46962 0.331404,-0.443248 0.7019,-0.853515 1.09044,-1.24757 1.254075,-1.305413 -0.534715,0.569882 0.734306,-0.80591 0.51302,-0.556182 1.109991,-1.003536 1.713347,-1.456293 0.160205,-0.125328 0.323974,-0.246264 0.48061,-0.375982 0.155525,-0.128794 0.30271,-0.267263 0.455507,-0.399254 0.147174,-0.127133 0.296278,-0.252027 0.444378,-0.37809 0.148164,-0.126115 0.293389,-0.255736 0.444415,-0.37844 0.14686,-0.119321 0.302517,-0.227662 0.449006,-0.347437 0.146508,-0.119793 0.286443,-0.247342 0.429665,-0.371012 0.356389,-0.298136 0.462034,-0.402018 0.845151,-0.661726 0.136503,-0.09253 0.279064,-0.175903 0.41978,-0.261963 0.414006,-0.253202 0.838935,-0.490268 1.230127,-0.778808 0.139274,-0.07316 0.275727,-0.151918 0.417822,-0.219492 0.484362,-0.230338 -5.91154,-2.243948 -5.457052,-2.536234 1.960684,-0.195193 16.665042,0.05531 16.206195,1.595921 -0.102836,0.345279 -10.384716,9.196923 -10.824142,9.24067 z"
         id="path5560"
         style="fill:#f9f9f9;fill-opacity:1;stroke:#00a79d;stroke-width:0.19955365;stroke-linecap:round;stroke-linejoin:round;stroke-miterlimit:10.30000019;stroke-dasharray:none;stroke-dashoffset:0;stroke-opacity:1"
         inkscape:export-filename="/home/luan/workspace/src/github.com/luan/pairist/static/path5560.png"
         inkscape:export-xdpi="18.702574"
         inkscape:export-ydpi="18.702574" />
      <path
         inkscape:connector-curvature="0"
         id="path5603"
         d="m 50.93133,88.696138 c -0.278761,0.02136 -0.531673,0.08824 -0.758736,0.200646 -0.34561,0.469861 -0.622638,0.966138 -0.831082,1.488831 -0.208445,0.522693 -0.371595,1.057752 -0.489449,1.605175 -0.116574,0.563159 -0.218769,1.212311 -0.306587,1.947456 -0.04391,0.367572 -0.08368,0.695238 -0.119323,0.983001 -0.03564,0.287762 -0.06714,0.535621 -0.09451,0.743574 -0.130553,0.754253 -0.229841,1.529862 -0.297866,2.32683 -0.06802,0.796968 -0.131221,1.744001 -0.18959,2.841099 -0.02855,0.55641 -0.05965,1.08136 -0.09331,1.57482 -0.019,0.49234 -0.0466,0.96951 -0.08283,1.43151 -0.05826,1.46129 -0.09713,2.70732 -0.116607,3.7381 -0.01948,1.03078 0.0066,1.9868 0.07834,2.86808 l 0.0557,0.68456 c 0.610749,7.50655 1.723062,11.19801 3.336938,11.07438 0.557521,-0.0427 0.99092,-0.25011 1.300198,-0.62217 0.309278,-0.37209 0.43959,-0.85711 0.390935,-1.45512 -0.05378,-0.66096 -0.137867,-1.42251 -0.252322,-2.28468 -0.115715,-0.8779 -0.256348,-1.88057 -0.421895,-3.00803 -0.16555,-1.12743 -0.301696,-2.07503 -0.40845,-2.84277 -0.108034,-0.78348 -0.17998,-1.39554 -0.215831,-1.83617 l -0.06338,-0.77898 c -0.106979,-0.72268 -0.140446,-1.03058 -0.194019,-1.54539 -0.05519,-0.51115 -0.01549,-0.51863 -0.01557,-0.69605 2.4e-5,-0.0294 0.0018,-0.0588 0.0039,-0.0879 9.18e-4,-0.0121 -0.0029,-0.0408 0.0043,-0.037 -5.72e-4,-0.005 -0.0013,-0.01 -0.0016,-0.0142 -0.0053,-0.0627 -0.0048,-0.0935 -2.32e-4,-0.15585 0.0013,-0.0174 -10e-4,-0.036 0.0055,-0.0519 0.0029,-0.007 0.006,0.0307 0.006,0.0228 9.7e-5,-0.0161 -0.0038,-0.0321 -0.0058,-0.048 -0.0085,-0.0696 -0.01392,-0.13651 -0.01038,-0.20655 7.48e-4,-0.0167 0.0014,-0.0335 0.0047,-0.0498 5.46e-4,-0.002 0.0047,0.009 0.0046,0.006 -6.66e-4,-0.0254 -0.0041,-0.0507 -0.0062,-0.0763 -2.91e-4,-0.0295 -0.0015,-0.0587 -7.43e-4,-0.0879 3.78e-4,-0.0213 0.01002,-0.11062 0.01167,-0.12313 0.0012,-0.009 0.0041,-0.0172 0.0052,-0.0261 0.0029,-0.0223 0.0042,-0.0451 0.007,-0.0674 0.0013,-0.01 0.0036,-0.0196 0.0055,-0.0291 0.0026,-0.0294 0.0051,-0.0586 0.0076,-0.0877 0.0015,-0.007 0.0041,-0.013 0.0048,-0.0196 0.0029,-0.0255 0.0035,-0.0511 0.0062,-0.0767 0.0011,-0.0104 0.0043,-0.0205 0.0053,-0.0311 0.003,-0.0304 0.0037,-0.0612 0.0069,-0.0915 6.88e-4,-0.009 0.0031,-0.0168 0.0049,-0.0251 0.0031,-0.0288 0.0061,-0.0571 0.0092,-0.0858 0.0018,-0.008 0.0043,-0.0151 0.0055,-0.0226 0.0039,-0.0245 0.0061,-0.0494 0.01014,-0.0739 0.0014,-0.009 0.0049,-0.0168 0.0062,-0.0257 0.02784,-0.35726 0.03476,-0.42168 0.03266,-0.7042 0.0016,-0.0129 -0.0044,-0.0424 0.0071,-0.0381 2.47e-4,1.5e-4 1.46e-4,7.5e-4 5.48e-4,9.4e-4 -0.0021,-0.026 -0.0049,-0.054 -0.0031,-0.0383 -5e-6,-0.0117 -2.7e-4,-0.023 -1.1e-5,-0.0346 -2e-6,-0.006 5.75e-4,-0.0224 0.001,-0.0169 -0.01042,-0.39427 -0.02552,-0.85821 -0.02904,-1.21312 0.0094,-0.42829 0.01696,-0.88015 0.02257,-1.35564 0.0043,-0.49122 0.0147,-0.99873 0.03113,-1.52255 0.02983,-0.54069 0.06762,-1.074061 0.113401,-1.600127 0.04449,-0.541803 0.08422,-1.051569 0.119164,-1.5293 0.04833,-0.494592 0.09062,-0.972884 0.126846,-1.434879 0.05661,-0.574401 0.130153,-1.031336 0.220637,-1.370806 0.02166,-0.09667 0.07453,-0.354083 0.158615,-0.772238 0.09875,-0.419279 0.195588,-0.862164 0.290501,-1.328652 0.109584,-0.467614 0.199722,-0.90207 0.270414,-1.303363 0.08408,-0.418155 0.122923,-0.666575 0.116521,-0.74526 -0.04994,-0.613745 -0.228368,-1.083045 -0.535297,-1.407902 -0.293538,-0.342041 -0.711732,-0.492106 -1.254581,-0.450518 z"
         style="font-style:normal;font-variant:normal;font-weight:normal;font-stretch:normal;font-size:50.79999924px;line-height:1.25;font-family:'Segoe Script';-inkscape-font-specification:'Segoe Script';letter-spacing:0px;word-spacing:0px;fill:#00a79d;fill-opacity:1;stroke:none;stroke-width:0.2438762" />
    </g>
  </g>
</svg>
