<?xml version="1.0" encoding="UTF-8" standalone="no"?>
<!-- Created with Inkscape (http://www.inkscape.org/) -->

<svg
   xmlns:dc="http://purl.org/dc/elements/1.1/"
   xmlns:cc="http://creativecommons.org/ns#"
   xmlns:rdf="http://www.w3.org/1999/02/22-rdf-syntax-ns#"
   xmlns:svg="http://www.w3.org/2000/svg"
   xmlns="http://www.w3.org/2000/svg"
   xmlns:sodipodi="http://sodipodi.sourceforge.net/DTD/sodipodi-0.dtd"
   xmlns:inkscape="http://www.inkscape.org/namespaces/inkscape"
   width="1.7218182in"
   height="1.7644631in"
   viewBox="0 0 43.734183 44.817362"
   version="1.1"
   id="svg8"
   sodipodi:docname="pairist.svg"
   inkscape:version="0.92.2 5c3e80d, 2017-08-06"
   inkscape:export-filename="/home/luan/workspace/src/github.com/luan/pairist/static/favicon.png"
   inkscape:export-xdpi="18.702574"
   inkscape:export-ydpi="18.702574">
  <defs
     id="defs2" />
  <sodipodi:namedview
     id="base"
     pagecolor="#ffffff"
     bordercolor="#666666"
     borderopacity="1.0"
     inkscape:pageopacity="0.0"
     inkscape:pageshadow="2"
     inkscape:zoom="7.2407736"
     inkscape:cx="51.886194"
     inkscape:cy="59.529644"
     inkscape:document-units="mm"
     inkscape:current-layer="g5672"
     showgrid="false"
     inkscape:window-width="3840"
     inkscape:window-height="2088"
     inkscape:window-x="0"
     inkscape:window-y="72"
     inkscape:window-maximized="0"
     showborder="true"
     units="in"
     fit-margin-top="0"
     fit-margin-left="0"
     fit-margin-right="0"
     fit-margin-bottom="0" />
  <metadata
     id="metadata5">
    <rdf:RDF>
      <cc:Work
         rdf:about="">
        <dc:format>image/svg+xml</dc:format>
        <dc:type
           rdf:resource="http://purl.org/dc/dcmitype/StillImage" />
        <dc:title />
      </cc:Work>
    </rdf:RDF>
  </metadata>
  <g
     inkscape:label="Layer 1"
     inkscape:groupmode="layer"
     id="layer1"
     transform="translate(-38.206178,-78.412976)">
    <g
       id="g5672">
      <path
         inkscape:connector-curvature="0"
         transform="scale(0.26458333)"
         id="path5605"
         d="m 231.56641,312.63281 c -3.9375,0 -9.84375,0.46875 -17.71875,1.40625 -3.9375,0.5 -7.84375,1.0625 -11.71875,1.6875 -3.8125,0.5625 -7.625,1.25 -11.4375,2.0625 -7.625,1.625 -13.25,3.21875 -16.875,4.78125 -3.375,1.4375 -5.96875,3.09375 -7.78125,4.96875 -1.75,1.875 -2.625,4.34375 -2.625,7.40625 0,1.375 0.4375,2.5 1.3125,3.375 0.9375,0.8125 2.09375,1.21875 3.46875,1.21875 0.75,0 1.84375,-0.28125 3.28125,-0.84375 12.25,-4.1875 21.71875,-7 28.40625,-8.4375 13.8125,-2.6875 26.875,-4.03125 39.1875,-4.03125 2.0625,0 4.28125,0.0312 6.65625,0.0937 2.4375,0.0625 4.9375,0.21875 7.5,0.46875 2.5625,0.1875 5.15625,0.5 7.78125,0.9375 2.625,0.375 5.21875,0.90625 7.78125,1.59375 5.125,1.375 7.6875,3.375 7.6875,6 0,5.6875 -3.25,11.84375 -9.75,18.46875 -3.25,3.25 -6.59375,6.25 -10.03125,9 -3.375,2.75 -6.875,5.21875 -10.5,7.40625 -5.5,3.3125 -18.98438,9.5 -24.79688,12.25 -3.35368,1.60393 1.75423,-7.92179 -2.41211,-9.70117 -2.42374,-1.03514 -6.17317,1.65465 -8.63281,2.68555 -0.56145,0.23532 -0.24325,12.34093 -0.81445,12.57812 -3.75,1.5625 -7.0625,2.9375 -9.9375,4.125 v 0.002 c 0.001,0.0505 1.9e-4,0.0996 0,0.15039 -2e-5,0.0147 -0.61295,1.9298 -0.7465,4.16382 -0.12278,2.05375 0.10151,5.0796 0.18781,6.8542 0.10408,2.14027 -0.35779,4.31927 -0.35999,4.36259 -0.003,0.10658 -0.003,-0.0729 0,0.084 1.4e-4,0.0692 -1.3e-4,0.1375 0,0.20703 1.3e-4,0.0605 3e-5,0.12289 0,0.18359 4.29649,-1.49855 8.56913,-3.10404 12.8125,-4.84179 0.62541,-0.25961 -1.88155,25.41395 5.71484,34.0664 4.48676,5.1105 10.0553,7.48689 19.51563,5.95117 4.44748,-0.72198 21.44887,-11.33337 21.47461,-14.33007 0.0257,-2.99671 -1.24742,-3.4525 -2.86133,-4.98829 -1.6139,-1.5358 -14.99143,12.42561 -23.89258,11.99805 -2.18967,-0.10518 -4.39764,-1.64731 -5.5664,-3.50195 -5.88619,-9.34051 -5.58569,-27.99172 -3.80664,-32.90039 0.81678,-2.25361 8.43361,-4.63957 9.29687,-5.57618 10.0625,-5.12499 20.15625,-11.09375 30.28125,-17.90624 10.0625,-6.8125 17.3125,-13.37501 21.75,-19.6875 0.8125,-1.125 1.625,-2.50001 2.4375,-4.125 0.8125,-1.625 1.65625,-3.53126 2.53125,-5.71876 1.8125,-4.49999 2.71875,-7.8125 2.71875,-9.9375 0,-5.56249 -2.125,-10 -6.375,-13.3125 -4.25,-3.37499 -9.5,-5.8125 -15.75,-7.3125 -3.125,-0.74999 -6.21875,-1.34375 -9.28125,-1.78124 -3,-0.5 -6.03125,-0.84376 -9.09375,-1.03126 -3,-0.24999 -6.09375,-0.40625 -9.28125,-0.46874 -3.125,-0.0625 -6.375,-0.0938 -9.75,-0.0938 z"
         style="font-style:normal;font-variant:normal;font-weight:normal;font-stretch:normal;font-size:50.79999924px;line-height:1.25;font-family:'Segoe Script';-inkscape-font-specification:'Segoe Script';letter-spacing:0px;word-spacing:0px;fill:#00a79d;fill-opacity:1;stroke:none;stroke-width:0.99999994" />
      <path
         inkscape:connector-curvature="0"
         transform="scale(0.26458333)"
         id="path5601"
         d="m 193.33191,406.54698 -0.002,0.002 c -0.002,0.006 -0.004,0.009 -0.006,0.0117 4e-5,0.001 -4e-5,0.003 0,0.004 0.002,-0.004 0.006,-0.008 0.008,-0.01 1.2e-4,-0.005 -2.8e-4,-0.003 0,-0.008 z"
         style="font-style:normal;font-variant:normal;font-weight:normal;font-stretch:normal;font-size:50.79999924px;line-height:1.25;font-family:'Segoe Script';-inkscape-font-specification:'Segoe Script';letter-spacing:0px;word-spacing:0px;fill:#000000;fill-opacity:1;stroke:none;stroke-width:0.99999994" />
      <path
         inkscape:connector-curvature="0"
         transform="scale(0.26458333)"
         id="path5599"
         d="m 193.84754,408.62901 c -0.005,3.4e-4 -0.0425,0.003 -0.0352,0.004 0.0195,0.006 0.0391,0.0117 0.0586,0.0176 -0.008,-0.007 -0.0156,-0.0143 -0.0234,-0.0215 z"
         style="font-style:normal;font-variant:normal;font-weight:normal;font-stretch:normal;font-size:50.79999924px;line-height:1.25;font-family:'Segoe Script';-inkscape-font-specification:'Segoe Script';letter-spacing:0px;word-spacing:0px;fill:#000000;fill-opacity:1;stroke:none;stroke-width:0.99999994" />
      <path
         inkscape:connector-curvature="0"
         transform="scale(0.26458333)"
         id="text817"
         d="m 194.1405,408.64271 c -0.0425,-0.008 -0.0843,-0.002 -0.12695,0.002 -0.004,4.2e-4 -0.0159,0.002 -0.0117,0.002 0.11399,-0.009 0.12475,7.8e-4 0.16407,0.002 -0.009,-10e-4 -0.0168,-0.005 -0.0254,-0.006 z"
         style="font-style:normal;font-variant:normal;font-weight:normal;font-stretch:normal;font-size:50.79999924px;line-height:1.25;font-family:'Segoe Script';-inkscape-font-specification:'Segoe Script';letter-spacing:0px;word-spacing:0px;fill:#000000;fill-opacity:1;stroke:none;stroke-width:0.99999994" />
      <path
         sodipodi:nodetypes="cccccccccccccccccccsccsccccccccccccccccsccccccscccccccccccccccccccccccccccccccccccscccccccccccccccccccccccccccccccccccccccccccccccccccccccccccccscsccccccccccccccccscscc"
         inkscape:connector-curvature="0"
         d="m 55.039593,83.84623 c -0.03359,-0.02514 -0.06233,-0.0586 -0.100756,-0.07543 -0.05633,-0.02466 -0.118012,-0.03542 -0.178438,-0.04683 -0.352134,-0.06649 -0.578136,-0.01357 -0.918945,0.0662 -0.113607,0.02774 -0.230013,0.04584 -0.340823,0.08323 -0.124783,0.04211 -0.244457,0.09844 -0.363636,0.154475 -0.272428,0.128095 -0.481272,0.252216 -0.741648,0.402291 -0.762762,0.439637 0.04679,-0.02143 -0.78612,0.450956 -0.149793,0.09059 -0.30413,0.174053 -0.449381,0.271753 -0.14655,0.09857 -0.282549,0.211998 -0.425016,0.316384 -0.147521,0.10809 -0.296979,0.213518 -0.444929,0.321027 -0.156572,0.113773 -0.311753,0.229465 -0.468632,0.342817 -0.163087,0.117841 -0.332772,0.226783 -0.491252,0.350748 -0.152149,0.119015 -0.293137,0.251645 -0.439709,0.377465 -0.127759,0.127551 -0.257857,0.252799 -0.38328,0.382649 -0.744432,0.770718 0.03521,-0.01455 -0.669587,0.735203 -0.508193,0.540617 -0.190383,0.171158 -0.722921,0.708826 -0.125103,0.126307 -0.242993,0.259559 -0.36449,0.389337 -0.113424,0.127593 -0.228166,0.254027 -0.340275,0.382778 -0.424736,0.487789 -0.219535,0.271579 -0.654939,0.758682 -0.431985,0.483278 -0.316709,0.327351 -0.737095,0.837253 -0.118819,0.144121 -0.233114,0.291915 -0.349671,0.437872 -0.109296,0.148789 -0.225589,0.292682 -0.327887,0.446363 -0.181393,0.272505 -0.391025,0.664586 -0.543319,0.95377 -0.266817,0.506648 -0.493644,1.008068 -0.723977,1.531723 -0.307972,0.591016 -0.605898,1.187064 -0.904563,1.782794 -0.106397,0.212223 -0.223583,0.419283 -0.320691,0.635913 -0.04672,0.104225 -0.484216,1.238073 -0.522994,1.338202 -0.280778,0.688258 -0.478607,1.405784 -0.677338,2.120719 -0.06649,0.23922 -0.137509,0.47732 -0.195797,0.71867 -0.107789,0.44631 -0.193215,0.95128 -0.27546,1.40318 -0.105373,0.66634 -0.129398,1.34043 -0.126307,2.01377 0.0011,0.21587 0.0016,0.43186 0.01156,0.6475 0.01609,0.3514 0.07375,0.91451 0.106894,1.2643 0.0324,0.20979 0.05514,0.42131 0.09721,0.62938 0.03534,0.17481 0.258279,1.0024 0.307054,1.17973 0.07888,0.2868 0.231958,0.83691 0.33209,1.12095 0.06155,0.17461 0.13635,0.34427 0.204523,0.51641 0.0999,0.2227 0.359394,0.81066 0.472389,1.02416 0.08657,0.16357 0.187616,0.31906 0.281771,0.47839 0.09266,0.1568 0.185423,0.31354 0.278678,0.46999 0.08899,0.14929 0.182776,0.29578 0.26806,0.44722 0.08413,0.1494 0.15999,0.30331 0.239985,0.45496 0.202694,0.37429 0.25687,0.50029 0.4997,0.84732 0.09225,0.13184 0.192476,0.25798 0.292404,0.38411 0.3004,0.37915 0.623459,0.73988 0.943628,1.10219 0.431636,0.48855 0.97409,0.85485 1.469253,1.2722 1.010152,0.85141 -0.325401,-0.23168 0.714425,0.60377 0.135025,0.0937 0.27005,0.18749 0.405074,0.28123 0.137494,0.0905 0.27686,0.1783 0.412481,0.27163 0.408537,0.28114 0.401605,0.32074 0.84991,0.5501 0.161396,0.0826 0.752202,0.32734 0.923777,0.39947 0.01402,0.007 0.876699,0.40814 0.881316,0.41005 0.156089,0.0643 0.318053,0.11331 0.476203,0.17236 0.160123,0.0598 0.320016,0.12026 0.47857,0.18409 0.795057,0.32005 0.174704,0.10495 1.013233,0.37252 0.91414,0.23844 0.1412,0.0181 1.063569,0.33682 0.190447,0.0658 0.381759,0.12959 0.575477,0.18504 0.198315,0.0568 0.401484,0.0955 0.600027,0.15144 0.216059,0.0609 0.424288,0.15002 0.643348,0.19905 0.220196,0.0493 0.446825,0.0633 0.670239,0.095 0.460463,0.0134 0.910252,0.13375 1.368822,0.16281 0.239205,0.0152 0.479433,-0.006 0.71905,-1.8e-4 0.258781,0.006 0.517147,0.0462 0.775761,0.0351 0.165987,-0.007 1.387364,-0.19421 1.544294,-0.21767 0.853583,-0.15988 1.722662,-0.2669 2.552433,-0.53544 0.287557,-0.0931 0.561234,-0.22473 0.844817,-0.32928 0.300961,-0.11095 0.613235,-0.19187 0.908537,-0.31711 0.290041,-0.12302 0.562451,-0.28404 0.843677,-0.42607 0.874011,-0.38814 0.934844,-0.38397 1.756923,-0.87338 0.272703,-0.16235 0.528174,-0.35265 0.801613,-0.51376 0.287716,-0.16953 0.596207,-0.30265 0.880727,-0.47749 0.281845,-0.17319 0.543898,-0.3767 0.815848,-0.56506 l 0.891611,-0.5463 c 2.308746,-1.67181 -0.600091,0.45425 1.6769,-1.27364 0.297921,-0.22608 0.615516,-0.42593 0.908328,-0.65859 0.294746,-0.23419 0.563713,-0.49928 0.852646,-0.74061 0.303718,-0.25368 0.628708,-0.48184 0.924994,-0.74416 0.293217,-0.25961 0.561015,-0.54658 0.841523,-0.81987 0.04015,-0.0408 1.634803,-1.66021 1.663676,-1.69256 0.257369,-0.28838 0.48558,-0.60152 0.72874,-0.90198 0.239419,-0.29584 0.478038,-0.59233 0.718992,-0.88693 0.243535,-0.29775 0.500266,-0.58494 0.734462,-0.8901 0.230873,-0.30083 0.439907,-0.6178 0.65986,-0.92671 0.685816,-1.21348 0.414184,-0.59924 0.837475,-1.83257 0.414359,-0.6518 1.336149,-0.0658 0.92179,0.58599 v 0 c -0.950076,0.92684 -0.489141,0.41966 -1.369536,1.53347 -0.276286,0.36335 -1.126861,1.48925 -1.415669,1.83974 -0.900496,1.09283 -0.604698,0.66572 -1.574615,1.7051 -2.102387,2.25297 0.495975,-0.42669 -1.634427,1.74891 -1.150919,1.08627 -0.584988,0.53221 -1.697659,1.66233 -0.274632,0.26517 -0.566684,0.51176 -0.844531,0.77356 -0.275686,0.25976 -0.533197,0.53885 -0.815893,0.79096 -0.405143,0.36131 -1.258898,1.00927 -1.688418,1.34129 -1.4802,1.17014 -0.168912,0.17306 -1.683273,1.21668 -0.283031,0.19505 -0.5451,0.42058 -0.835959,0.60375 -0.277316,0.17463 -0.576305,0.31222 -0.864968,0.46738 -1.289378,0.69306 -0.490771,0.24891 -1.768258,0.97566 -1.204386,0.52483 -0.606103,0.24417 -1.794251,0.84327 -0.293719,0.12858 -0.601591,0.22206 -0.901639,0.33509 -0.868728,0.32727 -1.730759,0.68409 -2.641669,0.88184 -1.637713,0.32023 -0.05629,0.0366 -1.691574,0.25516 -0.286551,0.0383 -0.568288,0.11257 -0.856287,0.13777 -0.263387,0.023 -0.528814,10e-4 -0.793154,0.007 -1.166461,0.0238 -0.428038,0.0592 -1.547162,-0.0402 -2.850891,-0.42212 1.446885,0.19321 -1.465215,-0.15245 -0.22098,-0.0262 -0.437544,-0.0815 -0.656614,-0.12059 -0.214407,-0.0383 -0.429315,-0.0737 -0.643802,-0.11152 -0.782156,-0.13792 -0.431126,-0.0509 -1.155216,-0.28703 -0.754534,-0.22541 -0.371729,-0.12062 -1.148657,-0.31351 -0.47508,-0.14039 -0.569677,-0.21293 -1.029253,-0.39025 -0.179281,-0.0692 -0.363617,-0.12496 -0.541962,-0.19651 -0.172304,-0.0691 -0.339579,-0.15019 -0.50937,-0.22529 -0.154546,-0.0882 -0.309793,-0.17526 -0.463638,-0.26472 -0.161723,-0.094 -0.31945,-0.195 -0.483044,-0.28574 -0.175236,-0.0972 -0.355166,-0.18569 -0.533083,-0.27789 -0.177601,-0.092 -0.361053,-0.1734 -0.533466,-0.27482 -0.148354,-0.0873 -0.757578,-0.52016 -0.896662,-0.618 -0.252346,-0.17245 -0.673661,-0.45123 -0.911474,-0.64906 -0.131479,-0.10938 -0.251751,-0.23163 -0.374557,-0.35066 -0.396653,-0.38446 -0.758399,-0.80217 -1.165381,-1.17621 -0.371547,-0.37639 -0.458214,-0.44439 -0.787638,-0.85631 -0.117941,-0.14747 -0.228455,-0.30079 -0.338656,-0.45413 -0.343427,-0.47787 -0.666906,-0.97086 -0.966486,-1.47734 -0.08527,-0.15942 -0.176792,-0.31564 -0.255802,-0.47824 -0.07795,-0.16044 -0.143851,-0.32646 -0.214733,-0.49015 -0.153813,-0.35519 -0.296916,-0.71502 -0.454195,-1.06869 -0.0867,-0.19497 -0.185068,-0.38463 -0.270557,-0.58013 -0.08737,-0.19979 -0.165256,-0.4036 -0.247883,-0.6054 -0.169537,-0.48526 -0.280818,-0.77305 -0.411811,-1.2705 -0.09089,-0.34515 -0.209039,-0.93638 -0.26408,-1.28671 -0.07272,-0.46289 -0.107215,-0.93128 -0.19032,-1.39275 -0.02545,-0.24042 -0.0602,-0.48004 -0.0764,-0.72127 -0.01609,-0.23948 -0.01879,-0.47975 -0.0204,-0.71975 -0.0016,-0.24227 -5.29e-4,-0.48472 0.0108,-0.72673 0.03484,-0.7515 0.15217,-1.49459 0.283668,-2.23422 0.05019,-0.25528 0.09172,-0.51243 0.15058,-0.76586 0.05762,-0.24808 0.133538,-0.49156 0.198646,-0.73778 0.183753,-0.694913 0.199427,-0.809375 0.411245,-1.497352 0.07543,-0.245018 0.162234,-0.486423 0.238704,-0.731121 0.07764,-0.248433 0.149053,-0.498766 0.223578,-0.748149 0.601197,-1.823272 -0.127735,0.352079 0.505754,-1.429977 0.08338,-0.234548 0.152503,-0.473996 0.235736,-0.708592 0.07702,-0.217077 0.16415,-0.430432 0.244912,-0.646141 0.172555,-0.46088 0.278174,-0.754838 0.445193,-1.214403 0.245242,-0.587068 0.477017,-1.186418 0.776282,-1.748983 0.176032,-0.330909 0.461007,-0.770123 0.661987,-1.084673 0.116118,-0.181729 0.233347,-0.362749 0.35002,-0.544123 1.381475,-1.93297 -0.630465,0.876075 0.701014,-0.963589 0.112882,-0.155964 0.218337,-0.317281 0.333293,-0.471723 0.331404,-0.445233 0.7019,-0.857337 1.09044,-1.253157 1.254075,-1.311259 -0.534715,0.572434 0.734306,-0.809519 0.51302,-0.558673 1.109991,-1.008031 1.713347,-1.462815 0.160205,-0.125889 0.323974,-0.247367 0.48061,-0.377666 0.155525,-0.129371 0.30271,-0.26846 0.455507,-0.401042 0.147174,-0.127702 0.296278,-0.253156 0.444378,-0.379783 0.148164,-0.12668 0.293389,-0.256882 0.444415,-0.380135 0.14686,-0.119856 0.302517,-0.228682 0.449006,-0.348993 0.146508,-0.12033 0.286443,-0.24845 0.429665,-0.372674 0.356389,-0.299471 0.462034,-0.403818 0.845151,-0.664689 0.136503,-0.09295 0.279064,-0.176691 0.41978,-0.263136 0.414006,-0.254336 0.838935,-0.492464 1.230127,-0.782296 0.139274,-0.07349 0.275727,-0.152599 0.417822,-0.220475 0.484362,-0.23137 -5.91154,-2.253998 -5.457052,-2.547593 1.960684,-0.196067 16.665042,0.05556 16.206195,1.603069 -0.102836,0.346825 -10.384716,9.238111 -10.824142,9.282054 z"
         id="path5560"
         style="fill:#f9f9f9;fill-opacity:1;stroke:#00a79d;stroke-width:0.2;stroke-linecap:round;stroke-linejoin:round;stroke-miterlimit:10.30000019;stroke-dasharray:none;stroke-dashoffset:0;stroke-opacity:1"
         inkscape:export-filename="/home/luan/workspace/src/github.com/luan/pairist/static/path5560.png"
         inkscape:export-xdpi="18.702574"
         inkscape:export-ydpi="18.702574" />
      <path
         inkscape:connector-curvature="0"
         id="path5603"
         d="m 50.93133,88.696311 c -0.278761,0.02201 -0.531673,0.09093 -0.758736,0.206771 -0.34561,0.484204 -0.622638,0.995631 -0.831082,1.53428 -0.208445,0.538649 -0.371595,1.090041 -0.489449,1.654175 -0.116574,0.580351 -0.218769,1.249319 -0.306587,2.006904 -0.04391,0.378793 -0.08368,0.716462 -0.119323,1.013009 -0.03564,0.296547 -0.06714,0.551971 -0.09451,0.766272 -0.130553,0.777278 -0.229841,1.576564 -0.297866,2.39786 -0.06802,0.821296 -0.131221,1.797238 -0.18959,2.927828 -0.02855,0.57339 -0.05965,1.11437 -0.09331,1.62289 -0.019,0.50737 -0.0466,0.99911 -0.08283,1.47521 -0.05826,1.5059 -0.09713,2.78997 -0.116607,3.85222 -0.01948,1.06224 0.0066,2.04744 0.07834,2.95562 l 0.0557,0.70546 c 0.610749,7.7357 1.723062,11.53985 3.336938,11.41243 0.557521,-0.044 0.99092,-0.25774 1.300198,-0.64116 0.309278,-0.38344 0.43959,-0.88327 0.390935,-1.49953 -0.05378,-0.68114 -0.137867,-1.46594 -0.252322,-2.35443 -0.115715,-0.9047 -0.256348,-1.93797 -0.421895,-3.09984 -0.16555,-1.16186 -0.301696,-2.13839 -0.40845,-2.92956 -0.108034,-0.8074 -0.17998,-1.43814 -0.215831,-1.89222 l -0.06338,-0.80276 c -0.106979,-0.74474 -0.140446,-1.06204 -0.194019,-1.59257 -0.05519,-0.52675 -0.01549,-0.53446 -0.01557,-0.71729 2.4e-5,-0.0302 0.0018,-0.0605 0.0039,-0.0906 9.18e-4,-0.0125 -0.0029,-0.0421 0.0043,-0.0381 -5.72e-4,-0.005 -0.0013,-0.01 -0.0016,-0.0146 -0.0053,-0.0647 -0.0048,-0.0963 -2.32e-4,-0.16061 0.0013,-0.0179 -10e-4,-0.0371 0.0055,-0.0535 0.0029,-0.007 0.006,0.0316 0.006,0.0235 9.7e-5,-0.0166 -0.0038,-0.0331 -0.0058,-0.0495 -0.0085,-0.0717 -0.01392,-0.14067 -0.01038,-0.21285 7.48e-4,-0.0172 0.0014,-0.0345 0.0047,-0.0513 5.46e-4,-0.002 0.0047,0.009 0.0046,0.006 -6.66e-4,-0.0262 -0.0041,-0.0523 -0.0062,-0.0786 -2.91e-4,-0.0304 -0.0015,-0.0604 -7.43e-4,-0.0907 3.78e-4,-0.0219 0.01002,-0.114 0.01167,-0.12688 0.0012,-0.009 0.0041,-0.0177 0.0052,-0.0269 0.0029,-0.023 0.0042,-0.0464 0.007,-0.0694 0.0013,-0.0101 0.0036,-0.0202 0.0055,-0.03 0.0026,-0.0302 0.0051,-0.0603 0.0076,-0.0904 0.0015,-0.007 0.0041,-0.0133 0.0048,-0.0202 0.0029,-0.0263 0.0035,-0.0527 0.0062,-0.079 0.0011,-0.0107 0.0043,-0.0212 0.0053,-0.032 0.003,-0.0313 0.0037,-0.0631 0.0069,-0.0943 6.88e-4,-0.009 0.0031,-0.0173 0.0049,-0.0259 0.0031,-0.0296 0.0061,-0.0588 0.0092,-0.0884 0.0018,-0.008 0.0043,-0.0156 0.0055,-0.0234 0.0039,-0.0253 0.0061,-0.0509 0.01014,-0.0762 0.0014,-0.009 0.0049,-0.0173 0.0062,-0.0265 0.02784,-0.36817 0.03476,-0.43456 0.03266,-0.72569 0.0016,-0.0133 -0.0044,-0.0437 0.0071,-0.0393 2.47e-4,1.5e-4 1.46e-4,7.7e-4 5.48e-4,9.6e-4 -0.0021,-0.0268 -0.0049,-0.0556 -0.0031,-0.0395 -5e-6,-0.012 -2.7e-4,-0.0238 -1.1e-5,-0.0357 -2e-6,-0.006 5.75e-4,-0.0232 0.001,-0.0174 -0.01042,-0.4063 -0.02552,-0.8844 -0.02904,-1.25015 0.0094,-0.44136 0.01696,-0.90702 0.02257,-1.39702 0.0043,-0.50622 0.0147,-1.02922 0.03113,-1.56903 0.02983,-0.55719 0.06762,-1.106847 0.113401,-1.648972 0.04449,-0.558342 0.08422,-1.08367 0.119164,-1.575984 0.04833,-0.50969 0.09062,-1.002583 0.126846,-1.47868 0.05661,-0.591936 0.130153,-1.062819 0.220637,-1.412652 0.02166,-0.09962 0.07453,-0.364892 0.158615,-0.795811 0.09875,-0.432078 0.195588,-0.888483 0.290501,-1.369212 0.109584,-0.481889 0.199722,-0.929606 0.270414,-1.343149 0.08408,-0.43092 0.122923,-0.686923 0.116521,-0.76801 -0.04994,-0.63248 -0.228368,-1.116106 -0.535297,-1.450881 -0.293538,-0.35215 -0.711732,-0.506796 -1.254581,-0.463937 z"
         style="font-style:normal;font-variant:normal;font-weight:normal;font-stretch:normal;font-size:50.79999924px;line-height:1.25;font-family:'Segoe Script';-inkscape-font-specification:'Segoe Script';letter-spacing:0px;word-spacing:0px;fill:#00a79d;fill-opacity:1;stroke:none;stroke-width:0.24757053" />
    </g>
  </g>
</svg>
